# xmcd CD database file
#
# Track frame offsets:
#	150
#	12945
#	30883
#	45108
#	62346
#	77173
#	92051
#	106370
#	122872
#	139726
#	154560
#	172239
#	197326
#	216890
#	233088
#	250283
#
# Disc length: 3596 seconds
#
# Revision: 0
# Processed by: cddbd v1.5.2PL0 Copyright (c) Steve Scherf et al.
# Submitted via: CDex 1.75
#
DISCID=c40e0a10
DTITLE=Various Artist - Counrty's got Heart 2 of 2 Disks
DYEAR=2006
DGENRE=Country
TTITLE0=Pam Tillis - Mi Vida Loca
TTITLE1=Lonestar - Amazed
TTITLE2=Randy Travis - Look Heart, No Hands
TTITLE3=Mark Chesnutt - I Don't Want To Miss A Thing
TTITLE4=Mark Wills - I Do
TTITLE5=Alabama - Reckless
TTITLE6=Mindy McCready - Guys Do It All The Time
TTITLE7=Gary Allan - Man to Man
TTITLE8=Brad Paisley - We Danced
TTITLE9=Cyndi Thomson - What I Really Meant To Say
TTITLE10=Vince Gill - I Still Believe In You
TTITLE11=Sam Evans - Born to Fly
TTITLE12=Clint Black - Like The Rain
TTITLE13=Michael Peterson - From Here to Eternity
TTITLE14=Kenny Chesney - You Had Me from Hello
TTITLE15=Alison Krauss and Union Station - When You Say Nothing At All
EXTD=YEAR: 2006
EXTT0=
EXTT1=
EXTT2=
EXTT3=
EXTT4=
EXTT5=
EXTT6=
EXTT7=
EXTT8=
EXTT9=
EXTT10=
EXTT11=
EXTT12=
EXTT13=
EXTT14=
EXTT15=
PLAYORDER=
